<svg width="16" height="11" fill="none" xmlns="http://www.w3.org/2000/svg"><path d="M14.08.88a.96.96 0 100 1.92.96.96 0 000-1.92zm0 .64a.32.32 0 110 .64.32.32 0 010-.64zm-9.534.629c-.775 0-1.274.423-1.3 1.095h.688c.02-.308.248-.502.592-.502.347 0 .569.182.569.467 0 .29-.229.487-.566.487h-.433v.554h.44c.399 0 .643.192.643.502 0 .303-.259.512-.63.512-.382 0-.636-.19-.658-.49h-.71c.032.67.568 1.108 1.36 1.108.81 0 1.396-.45 1.396-1.073 0-.467-.306-.792-.793-.847v-.044a.8.8 0 00.655-.812c0-.559-.524-.957-1.253-.957zm3.46 0c-.925 0-1.481.713-1.481 1.892 0 .488.1.896.297 1.198.244.416.658.643 1.172.643.795 0 1.358-.524 1.358-1.263 0-.679-.494-1.178-1.168-1.178-.414 0-.744.189-.906.523h-.044C7.219 3.23 7.514 2.76 8 2.76c.278 0 .5.147.569.381h.736c-.101-.593-.626-.991-1.3-.991zm3.384 0c-.874 0-1.41.683-1.41 1.86 0 1.179.532 1.873 1.41 1.873.878 0 1.41-.697 1.41-1.87 0-1.18-.539-1.863-1.41-1.863zm0 .607c.406 0 .657.426.657 1.253 0 .832-.249 1.267-.657 1.267-.406 0-.657-.438-.657-1.267 0-.825.253-1.253.657-1.253zM7.989 4.014c.372 0 .642.265.642.627 0 .357-.28.63-.645.63a.628.628 0 01-.642-.637c0-.354.273-.62.645-.62zm5.707.807a.32.32 0 00-.114.612c.584.271 1.041.583 1.34.902.3.319.438.63.438.945 0 .338-.161.676-.508 1.017-.347.342-.876.672-1.545.95-1.336.557-3.222.913-5.307.913-2.085 0-3.971-.356-5.308-.912-.668-.279-1.197-.609-1.544-.95C.801 7.955.64 7.617.64 7.28c0-.305.13-.607.41-.916.282-.31.713-.614 1.264-.881a.32.32 0 10-.278-.577C1.43 5.2.934 5.54.576 5.933.22 6.327 0 6.788 0 7.28c0 .546.269 1.05.699 1.474.43.424 1.026.783 1.747 1.084C3.89 10.44 5.843 10.8 8 10.8c2.157 0 4.11-.36 5.554-.962.721-.3 1.317-.66 1.747-1.084.43-.424.699-.928.699-1.474 0-.507-.233-.98-.61-1.383-.378-.403-.902-.749-1.538-1.045a.32.32 0 00-.156-.03z" fill="#9E3D5F"/></svg>