<svg width="30" height="30" fill="none" xmlns="http://www.w3.org/2000/svg"><path d="M13.553 12.786v4.107l3.786-2.036-3.785-2.071z" fill="#303030"/><path d="M20.607 3.75H9.375c-3.09 0-5.625 2.536-5.625 5.643v11.232c0 3.09 2.536 5.625 5.625 5.625h11.232a5.655 5.655 0 005.643-5.643V9.393a5.655 5.655 0 00-5.643-5.643zm1.357 11.804c0 1.178-.107 2.375-.107 2.375s-.125 1-.536 1.446c-.535.59-1.125.59-1.392.625-1.965.143-4.911.16-4.911.16s-3.66-.053-4.786-.16c-.303-.054-1.018-.036-1.553-.625-.429-.446-.536-1.446-.536-1.446s-.107-1.197-.107-2.375v-1.108c0-1.178.107-2.375.107-2.375s.125-1 .536-1.446c.535-.59 1.125-.607 1.392-.643C12.054 9.84 15 9.822 15 9.822s2.946.017 4.91.16c.269.036.876.054 1.411.625.429.447.536 1.464.536 1.464s.107 1.197.107 2.375v1.108z" fill="#303030"/></svg>