<svg width="30" height="30" fill="none" xmlns="http://www.w3.org/2000/svg"><path fill-rule="evenodd" clip-rule="evenodd" d="M22.156 3.75H8.48c-2.427 0-4.729 1.903-4.729 4.327V21.76c0 2.424 2.302 4.489 4.73 4.489h13.68c2.424 0 4.09-2.065 4.09-4.49V8.078c0-2.424-1.666-4.327-4.094-4.327zm-.828 12.988c1.23 1.142 1.488 1.7 1.528 1.768.51.848-.565.912-.565.912l-2.055.03s-.443.088-1.024-.314c-.77-.524-1.494-1.896-2.062-1.72-.571.182-.554 1.42-.554 1.42s.003.216-.125.358c-.143.148-.42.135-.42.135h-.922s-2.032.169-3.82-1.694c-1.95-2.031-3.672-6.037-3.672-6.037s-.098-.254.007-.382c.122-.142.453-.149.453-.149l2.2-.01s.207.037.356.145a.695.695 0 01.192.257s.355.903.825 1.714c.92 1.589 1.35 1.937 1.66 1.768.456-.25.318-2.244.318-2.244s.01-.727-.23-1.052c-.183-.247-.527-.32-.683-.341-.125-.017.081-.304.345-.433.395-.192 1.095-.206 1.92-.196.642.007.828.047 1.078.108.76.183.504.89.504 2.586 0 .544-.098 1.308.294 1.562.17.108.582.017 1.61-1.734.49-.832.854-1.805.854-1.805s.082-.176.207-.25c.128-.075.3-.051.3-.051l2.316-.017s.693-.081.808.233c.118.328-.26 1.099-1.207 2.36-1.555 2.069-1.727 1.876-.436 3.073z" fill="#303030"/></svg>