<svg width="24" height="24" fill="none" xmlns="http://www.w3.org/2000/svg"><path d="M21 18h-7V8c0-.55.45-1 1-1h4c.3 0 .6.15.8.4l3 3.85c.15.2.2.4.2.6V16c0 1.1-.9 2-2 2z" fill="#E4E4E4"/><path d="M3 18h11V6c0-1.1-.9-2-2-2H3.5C2.1 4 1 5.1 1 6.5V16c0 1.1.9 2 2 2z" fill="#9E3D5F"/><path d="M18.5 15.5a2.5 2.5 0 100 5 2.5 2.5 0 000-5zM7 15.5a2.5 2.5 0 100 5 2.5 2.5 0 000-5z" fill="#37474F"/><path d="M18.5 16.75a1.25 1.25 0 100 2.5 1.25 1.25 0 000-2.5zm-11.5 0a1.25 1.25 0 100 2.5 1.25 1.25 0 000-2.5z" fill="#78909C"/><path d="M21 13h-1.8c-.15 0-.25-.05-.35-.15l-.7-.7c-.1-.1-.2-.15-.35-.15H16c-.3 0-.5-.2-.5-.5v-3c0-.3.2-.5.5-.5h2.75c.15 0 .3.05.4.2l2.25 2.7c.05.1.1.2.1.3v1.3c0 .3-.2.5-.5.5z" fill="#455A64"/><path d="M7.5 5.5C5 5.5 3 7.5 3 10s2 4.5 4.5 4.5 4.5-2 4.5-4.5-2-4.5-4.5-4.5zm0 5c-.3 0-.5-.2-.5-.5s.2-.5.5-.5.5.2.5.5-.2.5-.5.5z" fill="#fff"/><path d="M8.45 10.25c0-.1.05-.15.05-.25 0-.35-.2-.7-.5-.85V6.5H7v2.65c-.3.15-.5.5-.5.85 0 .55.45 1 1 1 .1 0 .15 0 .25-.05L8.9 12.1l.7-.7-1.15-1.15zm-.95.25c-.3 0-.5-.2-.5-.5s.2-.5.5-.5.5.2.5.5-.2.5-.5.5z" fill="#37474F"/></svg>