<svg width="16" height="16" fill="none" xmlns="http://www.w3.org/2000/svg"><path d="M8 0C3.589 0 0 3.589 0 8s3.589 8 8 8 8-3.589 8-8-3.589-8-8-8zm0 14.629A6.636 6.636 0 011.371 8 6.636 6.636 0 018 1.371 6.636 6.636 0 0114.629 8 6.636 6.636 0 018 14.629z" fill="#E04C4C"/><path d="M11.095 4.905a.685.685 0 00-.97 0L8 7.03 5.874 4.905a.685.685 0 10-.97.97L7.03 8l-2.126 2.127a.685.685 0 10.97.97L8 8.97l2.126 2.126a.684.684 0 00.97 0 .685.685 0 000-.97L8.968 8.002l2.126-2.127a.685.685 0 000-.97z" fill="#E04C4C"/></svg>