<svg width="12" height="12" fill="none" xmlns="http://www.w3.org/2000/svg"><path fill-rule="evenodd" clip-rule="evenodd" d="M12 1.333v9.334A1.334 1.334 0 0110.667 12h-2.5a.333.333 0 01-.334-.333v-4h1.56A.333.333 0 009.72 7.4l.24-1.2A.167.167 0 009.8 6H7.833V3.833A.167.167 0 018 3.667h1.667A.333.333 0 0010 3.333v-1A.333.333 0 009.667 2H8a2 2 0 00-2 2v2h-.82a.333.333 0 00-.333.333v1a.333.333 0 00.333.334H6v4a.333.333 0 01-.333.333H1.333A1.334 1.334 0 010 10.667V1.333A1.333 1.333 0 011.333 0h9.334A1.333 1.333 0 0112 1.333z" fill="#475993"/></svg>