<svg width="12" height="12" fill="none" xmlns="http://www.w3.org/2000/svg"><path fill-rule="evenodd" clip-rule="evenodd" d="M12 5.86C12 8.627 10.527 12 6.087 12A6.047 6.047 0 010 6a6.047 6.047 0 016.087-6 6.147 6.147 0 013.8 1.333.347.347 0 01.126.247.367.367 0 01-.106.26 17.6 17.6 0 00-1.24 1.253.327.327 0 01-.44.04 3.407 3.407 0 00-2.134-.666 3.567 3.567 0 100 7.133c2 0 2.847-.853 3.287-2.367H6.333A.333.333 0 016 6.9V5.133a.333.333 0 01.333-.333h5.334a.3.3 0 01.3.267c.024.263.035.528.033.793z" fill="#F34A38"/></svg>