<svg width="20" height="20" fill="none" xmlns="http://www.w3.org/2000/svg"><g clip-path="url(#clip0)" fill="#303030"><path d="M12.083 17.5H8.75a2.086 2.086 0 01-2.083-2.083V13.75a.417.417 0 01.833 0v1.667c0 .689.56 1.25 1.25 1.25h3.333a.417.417 0 010 .833z" stroke="#303030" stroke-width=".2"/><path d="M8.75 9.3H.417C.187 9.3 0 9.054 0 8.75c0-.304.187-.55.417-.55H8.75c.23 0 .417.246.417.55 0 .304-.187.55-.417.55z"/><path d="M13.333 20a1.668 1.668 0 01-1.667-1.667v-15c0-.716.46-1.35 1.145-1.579l5-1.667c.158-.056.337-.087.522-.087C19.253 0 20 .748 20 1.667v15c0 .715-.46 1.35-1.143 1.578l-5 1.667c-.161.057-.34.088-.524.088zm5-19.167a.772.772 0 00-.25.042l-5.009 1.67a.831.831 0 00-.574.788v15c0 .46.374.834.833.834a.767.767 0 00.252-.043l5.008-1.669a.834.834 0 00.573-.788v-15a.835.835 0 00-.833-.834z" stroke="#303030" stroke-width=".2"/><path d="M7.083 4.167a.417.417 0 01-.417-.417V2.083A2.087 2.087 0 018.75 0h9.583a.417.417 0 010 .833H8.75c-.69 0-1.25.561-1.25 1.25V3.75c0 .23-.187.417-.417.417zM6.417 12.5a.417.417 0 01-.295-.71L9.16 8.75 6.12 5.712a.417.417 0 01.59-.59l3.333 3.334a.417.417 0 010 .59L6.71 12.379a.415.415 0 01-.294.122z" stroke="#303030" stroke-width=".2"/></g><defs><clipPath id="clip0"><path fill="#fff" d="M0 0h20v20H0z"/></clipPath></defs></svg>