<svg width="62" height="24" fill="none" xmlns="http://www.w3.org/2000/svg"><rect width="62" height="24" rx="4" fill="#fff"/><path fill-rule="evenodd" clip-rule="evenodd" d="M47.154 15.748l-.11-.094a.645.645 0 01-.07-.914l2.847-3.275a.634.634 0 01.907-.071l.11.094a.644.644 0 01.07.914l-2.846 3.275a.647.647 0 01-.908.07z" fill="url(#paint0_linear)"/><path opacity=".4" fill-rule="evenodd" clip-rule="evenodd" d="M49.438 12.032l-.055-.064-.438.505.047.054c.75.756.43 1.52.258 1.788l.063-.07c.101-.12.258-.3.422-.497.172-.3.414-1.008-.297-1.716z" fill="url(#paint1_linear)"/><path opacity=".4" fill-rule="evenodd" clip-rule="evenodd" d="M50.376 13.016l.117-.134c.008-.016.024-.032.032-.047-.125.141-.258.291-.384.44.094-.102.172-.188.235-.26z" fill="url(#paint2_radial)"/><path fill-rule="evenodd" clip-rule="evenodd" d="M50.924 11.567l-2.847-3.275a.632.632 0 00-.907-.071l-.11.094a.645.645 0 00-.07.913l2.4 2.74.055.063c.712.717.47 1.425.29 1.724.14-.165.281-.33.414-.48.126-.15.258-.3.383-.44l.321-.363c.274-.268.313-.638.07-.905z" fill="url(#paint3_linear)"/><path fill-rule="evenodd" clip-rule="evenodd" d="M50.767 15.748l-.11-.094a.645.645 0 01-.07-.914l2.846-3.275a.633.633 0 01.907-.071l.11.094c.266.229.313.646.07.914l-2.846 3.275a.646.646 0 01-.907.07z" fill="url(#paint4_linear)"/><path opacity=".4" fill-rule="evenodd" clip-rule="evenodd" d="M53.081 12l-.054-.063-.438.504.047.055c.75.756.43 1.52.258 1.788l.063-.071c.1-.118.257-.3.422-.496.172-.3.414-1.009-.298-1.717z" fill="url(#paint5_linear)"/><path opacity=".4" fill-rule="evenodd" clip-rule="evenodd" d="M53.98 13.016l.118-.134c.008-.016.023-.032.031-.047-.125.141-.258.291-.383.44.094-.102.18-.188.235-.26z" fill="url(#paint6_radial)"/><path fill-rule="evenodd" clip-rule="evenodd" d="M54.528 11.567l-2.846-3.275a.633.633 0 00-.907-.071l-.11.094a.644.644 0 00-.07.913l2.4 2.74.055.064c.712.716.47 1.425.29 1.724.14-.166.281-.331.414-.48.125-.15.258-.3.383-.441l.32-.363c.274-.267.314-.637.071-.905z" fill="url(#paint7_linear)"/><path fill-rule="evenodd" clip-rule="evenodd" d="M19.637 8.032c.742 0 1.4.165 1.947.48.555.33.977.795 1.274 1.386.298.598.446 1.307.446 2.118 0 .874-.172 1.637-.524 2.26a3.107 3.107 0 01-1.493 1.378c.336.11.61.362.836.732l.391.59a.77.77 0 01.125.394.494.494 0 01-.195.41.751.751 0 01-.837.07.88.88 0 01-.29-.275l-.64-1.07a.923.923 0 00-.4-.38 1.475 1.475 0 00-.64-.125c-.759 0-1.408-.165-1.963-.48a3.296 3.296 0 01-1.275-1.386c-.297-.607-.445-1.315-.445-2.118 0-.811.156-1.512.445-2.118a3.302 3.302 0 011.275-1.386c.555-.33 1.204-.48 1.963-.48zm18.728.007c.188 0 .336.08.469.244l2.244 2.804 2.236-2.804a.615.615 0 01.485-.236.61.61 0 01.446.197.614.614 0 01.195.465.677.677 0 01-.164.425l-2.494 3.063v3.063c0 .228-.063.401-.196.535s-.297.19-.5.19a.738.738 0 01-.524-.19c-.133-.126-.196-.299-.196-.535v-3.063l-2.478-3.071a.64.64 0 01.031-.89.625.625 0 01.445-.197h.001zm-10.15.064c.829 0 1.47.204 1.931.63.462.409.696 1 .696 1.747 0 .748-.234 1.339-.696 1.756-.461.425-1.102.63-1.931.63h-1.963v2.378c0 .229-.062.402-.195.528-.133.133-.305.196-.524.196-.212-.007-.391-.07-.509-.204-.133-.134-.195-.307-.195-.528V8.772c0-.213.062-.378.188-.496a.73.73 0 01.5-.173h2.698zm-14.428-.064c.211 0 .4.064.524.197.133.134.196.3.196.512v6.488a.72.72 0 01-.196.528c-.133.134-.305.197-.524.197a.687.687 0 01-.508-.197c-.133-.134-.195-.307-.195-.528V8.748c0-.213.062-.378.195-.512a.675.675 0 01.508-.197zm20.707-.007c.156 0 .297.039.43.11a.755.755 0 01.305.338l3.042 6.56a.959.959 0 01.055.29c0 .166-.07.308-.203.434a.722.722 0 01-.47.173.634.634 0 01-.328-.095.638.638 0 01-.243-.291l-.664-1.48H32.57l-.664 1.48a.645.645 0 01-.243.291.62.62 0 01-.336.095.729.729 0 01-.461-.173.524.524 0 01-.204-.434c0-.094.024-.196.063-.29l3.034-6.56a.708.708 0 01.305-.338.814.814 0 01.43-.11zm-26.782.015c.21 0 .398.063.524.197a.69.69 0 01.195.512v5.976h3.073c.438 0 .665.197.665.583 0 .386-.227.583-.665.583H7.672c-.21 0-.375-.063-.492-.181-.11-.11-.172-.276-.172-.48V8.755c0-.213.062-.378.195-.512a.677.677 0 01.509-.197zM19.62 9.15c-.72 0-1.275.244-1.673.733-.4.495-.602 1.188-.602 2.117 0 .93.202 1.623.602 2.118.398.497.961.74 1.673.74.712 0 1.267-.243 1.666-.74.399-.495.602-1.204.602-2.118 0-.929-.203-1.622-.602-2.117-.4-.497-.947-.733-1.666-.733zm14.873.543l-1.447 3.276h2.902l-1.455-3.276zm-6.46-.48h-1.782v2.559l1.783.008c.97 0 1.462-.434 1.462-1.284 0-.85-.492-1.283-1.462-1.283z" fill="#5294AB"/><defs><linearGradient id="paint0_linear" x1="47.338" y1="14.677" x2="50.708" y2="12.748" gradientUnits="userSpaceOnUse"><stop stop-color="#1FADC3"/><stop offset=".707" stop-color="#5294AB"/></linearGradient><linearGradient id="paint1_linear" x1="49.411" y1="12.862" x2="49.758" y2="12.574" gradientUnits="userSpaceOnUse"><stop stop-color="#5294AB"/><stop offset="1" stop-color="#5294AB"/></linearGradient><linearGradient id="paint3_linear" x1="47.489" y1="9.437" x2="50.527" y2="11.281" gradientUnits="userSpaceOnUse"><stop stop-color="#5294AB"/></linearGradient><linearGradient id="paint4_linear" x1="50.948" y1="14.679" x2="54.318" y2="12.75" gradientUnits="userSpaceOnUse"><stop stop-color="#5294AB"/><stop offset=".707" stop-color="#5294AB"/></linearGradient><linearGradient id="paint5_linear" x1="53.055" y1="12.831" x2="53.402" y2="12.543" gradientUnits="userSpaceOnUse"><stop stop-color="#5294AB"/><stop offset="1" stop-color="#5294AB"/></linearGradient><linearGradient id="paint7_linear" x1="51.095" y1="9.438" x2="54.133" y2="11.283" gradientUnits="userSpaceOnUse"><stop stop-color="#5294AB"/></linearGradient><radialGradient id="paint2_radial" cx="0" cy="0" r="1" gradientUnits="userSpaceOnUse" gradientTransform="matrix(1.90664 0 0 1.91935 48.807 12.816)"><stop offset=".418" stop-color="#1FADC3"/><stop offset="1" stop-color="#1FADC3"/></radialGradient><radialGradient id="paint6_radial" cx="0" cy="0" r="1" gradientUnits="userSpaceOnUse" gradientTransform="matrix(1.90664 0 0 1.91935 52.415 12.816)"><stop offset=".418" stop-color="#5294AB"/><stop offset="1" stop-color="#5294AB"/></radialGradient></defs></svg>