<svg width="36" height="24" fill="none" xmlns="http://www.w3.org/2000/svg"><rect width="36" height="24" rx="4" fill="#fff"/><path fill-rule="evenodd" clip-rule="evenodd" d="M16.09 11.853a5.79 5.79 0 012.17-4.531 5.65 5.65 0 00-3.545-1.248C11.559 6.074 9 8.661 9 11.853c0 3.19 2.559 5.778 5.715 5.778a5.65 5.65 0 003.545-1.248 5.79 5.79 0 01-2.17-4.53z" fill="#5294AB"/><path fill-rule="evenodd" clip-rule="evenodd" d="M16.09 11.852a5.79 5.79 0 002.17 4.531 5.79 5.79 0 002.17-4.53 5.79 5.79 0 00-2.17-4.531 5.79 5.79 0 00-2.17 4.53z" fill="#44CDE2"/><path fill-rule="evenodd" clip-rule="evenodd" d="M21.805 6.074a5.65 5.65 0 00-3.545 1.248 5.79 5.79 0 012.17 4.53 5.79 5.79 0 01-2.17 4.531 5.649 5.649 0 003.545 1.248c3.156 0 5.715-2.587 5.715-5.778 0-3.192-2.56-5.779-5.715-5.779z" fill="#1FADC3"/></svg>