<svg width="44" height="40" fill="none" xmlns="http://www.w3.org/2000/svg"><path d="M37.703 28.3c0 1.767-1.493 3.2-3.334 3.2H6.036c-1.84 0-3.333-1.433-3.333-3.2V10.7c0-1.767 1.492-3.2 3.333-3.2h28.333c1.841 0 3.334 1.433 3.334 3.2v17.6z" fill="#1565C0"/><path d="M12.681 15.833l-2.366 6.527s-.6-2.76-.66-3.107c-1.347-2.843-3.334-2.685-3.334-2.685L8.663 25v-.002h2.848l3.938-9.165H12.68zM14.936 25h2.587l1.564-9.167h-2.62L14.938 25zm18.306-9.167H30.52L26.277 25h2.569l.53-1.31h3.24L32.89 25h2.354l-2.003-9.167zm-3.15 6.107l1.409-3.464.737 3.464h-2.145zm-7.336-3.435c0-.505.449-.88 1.735-.88.836 0 1.794.56 1.794.56l.42-1.923s-1.224-.43-2.425-.43c-2.72 0-4.122 1.204-4.122 2.727 0 2.755 3.584 2.378 3.584 3.793 0 .242-.208.803-1.7.803-1.498 0-2.486-.508-2.486-.508l-.446 1.847s.958.505 2.808.505c1.855 0 4.428-1.283 4.428-3.127 0-2.217-3.59-2.377-3.59-3.367z" fill="#fff"/><path d="M10.002 20.788l-.87-3.957s-.394-.858-1.418-.858h-4s5.1 1.394 6.288 4.815z" fill="#FFC107"/></svg>