<svg width="16" height="16" fill="none" xmlns="http://www.w3.org/2000/svg"><path d="M8 0C3.589 0 0 3.589 0 8s3.589 8 8 8 8-3.589 8-8-3.589-8-8-8zm0 14.629A6.636 6.636 0 011.371 8 6.636 6.636 0 018 1.371 6.636 6.636 0 0114.629 8 6.636 6.636 0 018 14.629z" fill="#4CE0A2"/><path d="M8.222 3a.366.366 0 00-.367.366v.672c-.246.032-1.626.29-1.626 1.956 0 2.43 2.515 1.712 2.515 3.333 0 .811-.525.83-.632.83-.074 0-.466.031-.646-.51-.12-.36-.399-.68-.779-.68s-.698.312-.625.684c.29 1.458 1.491 1.59 1.69 1.617v.603a.364.364 0 10.73 0v-.603c.245-.03 1.636-.258 1.636-1.951 0-2.332-2.515-1.886-2.516-3.316 0-.82.451-.845.549-.845.125 0 .374.078.51.476.121.36.4.68.78.68.379 0 .698-.313.622-.685-.266-1.302-1.273-1.53-1.475-1.569v-.692A.366.366 0 008.222 3z" fill="#4CE0A2"/></svg>