<svg width="19" height="17" fill="none" xmlns="http://www.w3.org/2000/svg"><path d="M2.036 0C.919 0 0 .92 0 2.036V12.44c0 1.116.92 2.035 2.036 2.035h.55a2.5 2.5 0 002.39 1.81 2.5 2.5 0 002.391-1.81h4.04a2.5 2.5 0 002.39 1.81 2.5 2.5 0 002.392-1.81h.775c1.117 0 2.036-.92 2.036-2.036V9.563c0-.286-.06-.566-.175-.825v-.001L17.49 5.733a2.04 2.04 0 00-1.86-1.21h-4.266L7.04.2a.679.679 0 00-.48-.2H2.037zm0 1.357H5.88l.119.12c0 .13-.03.008 0 .03l4.405 4.374v7.238H7.367a2.5 2.5 0 00-2.39-1.81 2.5 2.5 0 00-2.392 1.81h-.55a.668.668 0 01-.678-.678V2.036c0-.383.296-.679.679-.679zm3.845 0l4.524 4.524L6 1.507c-.119-.155.065.015-.024-.042l-.095-.108zm5.88 4.524h3.87c.27 0 .509.156.619.403l.826 1.859h-5.314V5.88zm0 3.619h5.876c.002.02.006.041.006.062v2.879a.668.668 0 01-.679.678h-.775a2.5 2.5 0 00-2.391-1.81c-.839 0-1.585.425-2.036 1.067V9.5zm-6.785 3.167c.632 0 1.131.499 1.131 1.13 0 .632-.5 1.132-1.13 1.132-.633 0-1.132-.5-1.132-1.131 0-.632.5-1.131 1.131-1.131zm8.822 0c.631 0 1.13.499 1.13 1.13 0 .632-.499 1.132-1.13 1.132-.632 0-1.131-.5-1.131-1.131 0-.632.499-1.131 1.13-1.131z" fill="#2196F3"/></svg>