<svg width="16" height="16" fill="none" xmlns="http://www.w3.org/2000/svg"><path d="M8 12c-2.206 0-4-1.794-4-4s1.794-4 4-4 4 1.794 4 4-1.794 4-4 4zm0-7C6.346 5 5 6.346 5 8s1.346 3 3 3 3-1.346 3-3-1.346-3-3-3zM2.533 16a.5.5 0 01-.5-.495l-.033-3A.502.502 0 012.5 12h3a.5.5 0 010 1H3.006l.027 2.495A.5.5 0 012.54 16h-.006zM13.5 4h-3a.5.5 0 010-1H13V.5a.5.5 0 011 0v3a.5.5 0 01-.5.5z" fill="#FFDE33"/><path d="M.8 10a.486.486 0 01-.467-.334A7.25 7.25 0 010 7.5C0 3.364 3.499 0 7.8 0c2.397 0 4.62 1.033 6.095 2.835a.456.456 0 01-.08.658.5.5 0 01-.685-.078C11.84 1.841 9.897.937 7.8.937 4.035.938.974 3.881.974 7.5c0 .641.098 1.279.291 1.896a.466.466 0 01-.326.585A.522.522 0 01.8 10zm7.4 6c-2.397 0-4.62-1.033-6.095-2.835a.456.456 0 01.08-.658.501.501 0 01.685.078c1.29 1.574 3.233 2.478 5.33 2.478 3.764 0 6.825-2.944 6.825-6.563 0-.64-.098-1.278-.291-1.896a.466.466 0 01.325-.584.491.491 0 01.608.314c.22.705.333 1.433.333 2.166 0 4.136-3.499 7.5-7.8 7.5z" fill="#FFDE33"/><path d="M8.533 9.533a.499.499 0 01-.313-.11l-.833-.666a.498.498 0 01-.188-.39V6.7a.5.5 0 011 0v1.427l.646.516a.5.5 0 01-.312.89z" fill="#FFDE33"/></svg>