<svg width="36" height="24" fill="none" xmlns="http://www.w3.org/2000/svg"><rect width="36" height="24" rx="4" fill="#fff"/><path fill-rule="evenodd" clip-rule="evenodd" d="M23.361 8.334l-.278 1.647c-.833-.47-2.729-.582-2.729.285 0 .345.43.581.946.867.784.433 1.77.978 1.77 2.18 0 1.92-2.003 2.625-3.332 2.625-1.328 0-2.197-.433-2.197-.433l.29-1.722c.797.656 3.212.843 3.212-.198 0-.437-.476-.695-1.027-.994-.76-.413-1.666-.904-1.666-2.052C18.35 8.433 20.644 8 21.61 8c.894 0 1.751.334 1.751.334zm6.495 7.472h-1.787l-.228-1.14h-2.475l-.406 1.14h-2.029l2.903-7.098s.176-.571.899-.571h1.565l1.558 7.668zM12.758 8.137l-1.856 5.274-.22-1.135-.655-3.449s-.079-.69-.923-.69H6.036L6 8.267s.938.2 2.036.876l1.691 6.663h2.029l3.097-7.669h-2.095zm3.584 7.668h-1.947l1.217-7.668h1.947l-1.217 7.668zm9.585-2.712l1.022-2.87.576 2.87h-1.598z" fill="#5294AB"/></svg>