<svg width="35" height="35" fill="none" xmlns="http://www.w3.org/2000/svg"><path fill-rule="evenodd" clip-rule="evenodd" d="M25.849 4.375H9.892c-2.831 0-5.517 2.22-5.517 5.048v15.965c0 2.827 2.686 5.237 5.517 5.237h15.961c2.828 0 4.772-2.41 4.772-5.237V9.423c0-2.828-1.944-5.048-4.776-5.048zm-.966 15.152c1.435 1.333 1.735 1.984 1.782 2.063.596.99-.658 1.065-.658 1.065l-2.398.035s-.517.103-1.195-.367c-.9-.611-1.743-2.212-2.406-2.007-.666.213-.646 1.656-.646 1.656s.003.253-.146.418c-.166.174-.49.158-.49.158H17.65s-2.37.197-4.457-1.976c-2.275-2.37-4.283-7.043-4.283-7.043s-.114-.296.008-.446c.142-.166.529-.174.529-.174l2.567-.011s.24.043.414.17c.142.102.225.299.225.299s.414 1.053.962 2c1.073 1.853 1.574 2.26 1.937 2.062.532-.292.37-2.619.37-2.619s.012-.848-.268-1.226c-.213-.288-.615-.375-.796-.399-.146-.02.094-.354.402-.504.461-.225 1.278-.24 2.24-.23.75.009.966.056 1.258.127.887.213.588 1.037.588 3.017 0 .635-.115 1.526.343 1.822.197.126.678.02 1.877-2.023.572-.97.998-2.106.998-2.106s.095-.205.24-.292c.15-.087.351-.059.351-.059l2.702-.02s.808-.094.942.272c.139.383-.303 1.282-1.407 2.753-1.815 2.414-2.016 2.189-.51 3.585z" fill="#fff"/></svg>