<svg width="12" height="12" fill="none" xmlns="http://www.w3.org/2000/svg"><path d="M12 10.333c0 .921-.746 1.667-1.667 1.667H1.667C.747 12 0 11.254 0 10.333V1.667C0 .746.746 0 1.667 0h8.666C11.254 0 12 .746 12 1.667v8.666z" fill="#1976D2"/><path d="M9.979 4.013a.414.414 0 00.02-.138c-.004-.12-.087-.208-.283-.208h-.872c-.22 0-.322.133-.382.267 0 0-.544 1.12-1.17 1.857-.204.214-.307.209-.417.209-.06 0-.208-.072-.208-.267V4.005c0-.232-.058-.338-.244-.338h-1.55c-.136 0-.206.106-.206.213 0 .223.299.276.333.899v1.208c0 .293-.051.346-.161.346-.297 0-.88-1-1.272-2.31-.084-.258-.169-.356-.39-.356h-.88c-.255 0-.297.124-.297.258 0 .24.2 1.54 1.292 3.033.791 1.084 1.834 1.709 2.758 1.709.559 0 .616-.143.616-.365v-.99c0-.268.062-.312.24-.312.127 0 .386.083.886.667.576.672.681 1 1.012 1h.872c.203 0 .32-.085.324-.25a.514.514 0 00-.019-.142c-.064-.192-.361-.661-.731-1.109a12.973 12.973 0 01-.5-.626c-.063-.087-.086-.148-.083-.207.003-.062.035-.12.083-.202-.009 0 1.119-1.584 1.229-2.118z" fill="#fff"/></svg>