<svg width="35" height="35" fill="none" xmlns="http://www.w3.org/2000/svg"><path d="M15.813 14.917v4.791l4.416-2.375-4.416-2.416z" fill="#fff"/><path d="M24.042 4.375H10.937c-3.604 0-6.562 2.958-6.562 6.583v13.104c0 3.605 2.958 6.563 6.563 6.563h13.104c3.625 0 6.583-2.958 6.583-6.583V10.958c0-3.625-2.958-6.583-6.583-6.583zm1.583 13.77c0 1.376-.125 2.772-.125 2.772s-.146 1.166-.625 1.687c-.625.688-1.313.688-1.625.73-2.292.166-5.73.187-5.73.187s-4.27-.063-5.582-.188c-.355-.062-1.188-.041-1.813-.729-.5-.52-.625-1.687-.625-1.687s-.125-1.396-.125-2.771v-1.292c0-1.375.125-2.77.125-2.77s.146-1.167.625-1.688c.625-.688 1.313-.709 1.625-.75 2.313-.167 5.75-.188 5.75-.188s3.438.021 5.73.188c.312.041 1.02.062 1.645.729.5.52.625 1.708.625 1.708s.125 1.396.125 2.771v1.292z" fill="#fff"/></svg>